<svg width="100" height="100" viewBox="0 0 100 100" fill="none" xmlns="http://www.w3.org/2000/svg">
  <path d="M20 30H40V35H20V30Z" fill="#4285F4"/>
  <path d="M20 40H70V45H20V40Z" fill="#4285F4"/>
  <path d="M60 10C60 15.5228 55.5228 20 50 20C44.4772 20 40 15.5228 40 10C40 4.47715 44.4772 0 50 0C55.5228 0 60 4.47715 60 10Z" fill="#4285F4"/>
  <path d="M20 60C20 65.5228 15.5228 70 10 70C4.47715 70 0 65.5228 0 60C0 54.4772 4.47715 50 10 50C15.5228 50 20 54.4772 20 60Z" fill="#4285F4"/>
  <path d="M40 10V70C40 82.1503 49.8497 92 62 92H70V87H62C52.6112 87 45 79.3888 45 70V10H40Z" fill="#4285F4"/>
</svg>

